<svg width="14" height="18" viewBox="0 0 14 18" fill="none" xmlns="http://www.w3.org/2000/svg">
<path d="M7.00016 8.99984C6.0835 8.99984 5.3335 8.24984 5.3335 7.33317C5.3335 6.4165 6.0835 5.6665 7.00016 5.6665C7.91683 5.6665 8.66683 6.4165 8.66683 7.33317C8.66683 8.24984 7.91683 8.99984 7.00016 8.99984ZM12.0002 7.49984C12.0002 4.47484 9.79183 2.33317 7.00016 2.33317C4.2085 2.33317 2.00016 4.47484 2.00016 7.49984C2.00016 9.44984 3.62516 12.0332 7.00016 15.1165C10.3752 12.0332 12.0002 9.44984 12.0002 7.49984ZM7.00016 0.666504C10.5002 0.666504 13.6668 3.34984 13.6668 7.49984C13.6668 10.2665 11.4418 13.5415 7.00016 17.3332C2.5585 13.5415 0.333496 10.2665 0.333496 7.49984C0.333496 3.34984 3.50016 0.666504 7.00016 0.666504Z" fill="#E1A208"/>
</svg>
