<svg width="206" height="52" viewBox="0 0 206 52" fill="none" xmlns="http://www.w3.org/2000/svg">
<path fill-rule="evenodd" clip-rule="evenodd" d="M60.5 8.36011C64.6421 8.36011 68 5.00224 68 0.860107C68 0.400761 68.3538 0 68.8132 0H202C204.209 0 206 1.79086 206 4V48C206 50.2091 204.209 52 202 52H68.1386C68.0618 52 68 51.937 68 51.8601C68 47.718 64.6421 44.3601 60.5 44.3601C56.3579 44.3601 53 47.718 53 51.8601C53 51.8929 53.0002 51.9256 53.0006 51.9583C53.0009 51.9812 52.9825 52 52.9596 52H4C2.09707 52 0.5045 50.6712 0.0995675 48.8909C1.36567 48.5392 2.29492 47.3781 2.29492 46C2.29492 44.586 1.31665 43.4005 0 43.0833V40.9167C1.31665 40.5995 2.29492 39.414 2.29492 38C2.29492 36.586 1.31665 35.4005 0 35.0833V32.9167C1.31665 32.5995 2.29492 31.414 2.29492 30C2.29492 28.586 1.31665 27.4005 0 27.0833V24.9167C1.31665 24.5995 2.29492 23.414 2.29492 22C2.29492 20.586 1.31665 19.4005 0 19.0833V16.9167C1.31665 16.5995 2.29492 15.414 2.29492 14C2.29492 12.586 1.31665 11.4005 0 11.0833V8.91668C1.31665 8.59953 2.29492 7.41401 2.29492 6C2.29492 4.62187 1.36567 3.46079 0.0995674 3.10913C0.504501 1.3288 2.09707 0 4 0H52.1868C52.6462 0 53 0.400759 53 0.860107C53 5.00224 56.3579 8.36011 60.5 8.36011Z" fill="white"/>
</svg>
